<?xml version="1.0" encoding="utf-8"?>
<!-- Generator: Adobe Illustrator 25.1.0, SVG Export Plug-In . SVG Version: 6.00 Build 0)  -->
<svg version="1.1" id="Layer_1" xmlns="http://www.w3.org/2000/svg" xmlns:xlink="http://www.w3.org/1999/xlink" x="0px" y="0px"
	 viewBox="0 0 266 168" style="enable-background:new 0 0 266 168;" xml:space="preserve">
<style type="text/css">
	.st0{fill:#B3B3B3;}
	.st1{stroke:#B3B3B3;stroke-width:1.0711;stroke-miterlimit:10;}
	.st2{fill:#E6E6E6;stroke:#000000;stroke-width:1.2808;}
</style>
<g>
	<path class="st0" d="M105.14,31.85c-0.01-0.01-0.01-0.01-0.01-0.02c-1.18-4.05-12.04-14.26-12.04-14.26l3.21,5.31
		c-3.2-1.38-7.04-1.61-11.62-0.32c-31.6,8.88-33.31,37.22-32.74,66.04c0.46,23.11,0.27,51.14,26.57,59.45
		c36.96,11.67,33.7-32.37,33.6-56.87C112.08,80.84,113.96,48.49,105.14,31.85z M81.66,111.11c-0.49,0.29-2.02-5.1-2.19-23.41
		c-0.19-22.34,0.12-25.42,2.06-25.63c1.65-0.18,2.06,2.73,2.13,16.91C83.72,88.99,84.95,109.14,81.66,111.11z"/>
	<path class="st1" d="M71.02,140.56c-26.31-8.31-26.12-36.34-26.58-59.46c-0.57-28.82,1.15-57.16,32.75-66.04
		c31.44-8.83,27.38,53.48,27.43,68.62C104.71,108.2,107.98,152.24,71.02,140.56z M74.03,54.57c-1.93,0.21-2.25,3.28-2.05,25.63
		c0.16,18.31,1.69,23.71,2.18,23.41c3.29-1.97,2.06-22.12,2-32.13C76.09,57.3,75.68,54.39,74.03,54.57z"/>
	<path class="st0" d="M169.66,71.94c-7.4-3.93-13.9-5.49-17.86-5.59c-8.06-0.19-9.3,5.03-9.38,20.74
		c-0.04,9.31-2.37,22.39,4.61,28.79c-0.28-11.24-0.57-22.48-0.86-33.72c10.3-1.94,15.45-2.89,25.62-4.52
		c-0.31,22.02-0.62,44.03-0.92,66.05c-9.89,6.03-20.14,12.51-32.03,12.27c-27.46-0.57-25.18-59.18-25.28-75.98
		c-0.15-25.17-2.65-66.89,33.45-64.5c7.7,0.51,16.39,3.77,25.57,10.6C171.59,41.36,170.62,56.65,169.66,71.94z"/>
	<path class="st0" d="M200.58,144.23c-10.25,2.84-15.49,3.8-26.09,4.95c0.01-43.32,0.02-86.64,0.02-129.97
		c9.87,3.44,19.74,7.62,29.11,12.26C202.59,69.06,201.57,106.64,200.58,144.23z"/>
	<path class="st0" d="M260.43,61.29c-0.73,16.07-1.47,32.13-2.2,48.2c-8.93,7.66-13.62,11.42-23.33,18.5
		c-2.08-8.32-3.14-12.94-5.29-22.93c-0.05,9.81-0.09,14.7-0.14,24.41c-9.58,5.19-14.52,7.42-24.63,11.17
		c0.24-36.27,0.45-72.53,0.67-108.81c9.51,2.45,19.38,6.18,28.1,10.68c1.78,10.43,3.67,20.85,5.71,31.24
		c0.03-10.08,0.05-15.16,0.09-25.41c5.79,2.83,9.61,4.91,13.89,7.8v-2.68L260.43,61.29z"/>
	<path class="st0" d="M37.66,47.27c-0.06,0.04-0.13,0.09-0.19,0.13l0.2,0.24C37.67,47.52,37.66,47.39,37.66,47.27z"/>
	<path class="st1" d="M162.16,64.44c-7.4-3.93-13.9-5.49-17.86-5.59c-8.06-0.19-9.3,5.03-9.38,20.74
		c-0.04,9.31-2.37,22.39,4.61,28.79c-0.28-11.24-0.57-22.48-0.86-33.72c10.3-1.94,15.45-2.89,25.62-4.52
		c-0.31,22.02-0.62,44.03-0.92,66.05c-9.89,6.03-20.14,12.51-32.03,12.27c-27.46-0.57-25.18-59.18-25.28-75.98
		c-0.15-25.17-2.65-66.89,33.45-64.5c7.7,0.51,16.39,3.77,25.57,10.6C164.09,33.87,163.12,49.15,162.16,64.44z"/>
	<path class="st1" d="M193.08,136.73c-10.25,2.84-15.49,3.8-26.09,4.95c0.01-43.32,0.02-86.64,0.02-129.97
		c9.87,3.44,19.74,7.62,29.11,12.26C195.09,61.56,194.08,99.15,193.08,136.73z"/>
	<path class="st1" d="M227.42,120.49c-2.09-8.32-3.15-12.94-5.3-22.93c-0.05,9.81-0.08,14.69-0.14,24.41
		c-9.57,5.19-14.53,7.42-24.63,11.17c0.23-36.27,0.45-72.54,0.67-108.8c9.51,2.45,19.38,6.17,28.11,10.67
		c1.78,10.43,3.67,20.86,5.71,31.24c0.04-10.07,0.05-15.16,0.09-25.41c8.7,4.25,12.93,6.81,21.01,12.95
		c-0.73,16.07-1.46,32.13-2.19,48.2C241.81,109.65,237.11,113.41,227.42,120.49z"/>
	<g>
		<g>
			<path d="M116.01,161.86c-10.01,1.65-15.02,2.19-25.04,1.93c-0.43-10.65-0.65-15.97-1.08-26.62c6.34-0.18,9.51-0.53,15.86-1.54
				c0.34,6.66,0.51,9.99,0.85,16.65c4.11-0.73,6.17-1.18,10.29-2.19C116.53,154.81,116.35,157.16,116.01,161.86z"/>
			<path d="M132.61,158.31c-12.97,3.36-14.91,0.58-15.19-9.91c-0.34-12.7,2.49-14.67,18.83-19.31c11.05-3.14,15.02-1.52,15.05,10.74
				C151.33,151.13,148.2,154.28,132.61,158.31z M134.43,138.27c-1.08,0.3-1.27,1.03-1.19,6.08c0.06,4.14,0.31,5.18,1.19,4.94
				c0.88-0.24,1.26-0.88,1.17-7.53C135.56,138.61,135.35,138.02,134.43,138.27z"/>
			<path d="M182.75,126.8c-4.08,0.22-7.63,0.92-9.79,1.53c-4.4,1.23-5.11,2.51-5.14,5.73c-0.04,4.62,0.29,5.8,2.48,5.19
				c-0.17-2.72-0.25-4.07-0.43-6.79c5.62-2.01,8.43-2.98,14.05-4.74c-0.24,5.75-0.36,8.62-0.59,14.36
				c-6.1,2.72-11.67,4.9-17.54,6.58c-9.46,2.7-13.66-1.43-13.68-11.39c-0.02-10.69,2.78-14.12,18.3-18.63
				c4.24-1.23,8.94-2.08,14.01-2.18C183.75,120.6,183.42,122.67,182.75,126.8z"/>
			<path d="M199.54,141.08c-12.97,1.88-14.77-0.14-14.55-11.11c0.28-13.28,3.19-16.69,19.53-18.82
				c11.05-1.44,14.88,2.01,14.33,14.78C218.35,137.71,215.14,138.82,199.54,141.08z M202.29,120.43c-1.08,0.15-1.3,0.9-1.46,6.17
				c-0.14,4.32,0.06,5.44,0.94,5.32s1.28-0.72,1.51-7.67C203.39,120.95,203.22,120.3,202.29,120.43z"/>
		</g>
	</g>
	<g>
		<g>
			<path class="st2" d="M113.87,160.79c-10.01,1.65-15.02,2.19-25.04,1.93c-0.43-10.65-0.65-15.97-1.08-26.62
				c6.34-0.18,9.51-0.53,15.86-1.54c0.34,6.66,0.51,9.99,0.85,16.65c4.11-0.73,6.17-1.18,10.29-2.19
				C114.38,153.74,114.21,156.09,113.87,160.79z"/>
			<path class="st2" d="M130.46,157.24c-12.97,3.36-14.91,0.58-15.19-9.91c-0.34-12.7,2.49-14.67,18.83-19.31
				c11.05-3.14,15.02-1.52,15.05,10.74C149.18,150.06,146.06,153.2,130.46,157.24z M132.28,137.2c-1.08,0.3-1.27,1.03-1.19,6.08
				c0.06,4.14,0.31,5.18,1.19,4.94c0.88-0.24,1.26-0.88,1.17-7.53C133.41,137.53,133.21,136.94,132.28,137.2z"/>
			<path class="st2" d="M180.61,125.73c-4.08,0.22-7.63,0.92-9.79,1.53c-4.4,1.23-5.11,2.51-5.14,5.73
				c-0.04,4.62,0.29,5.8,2.48,5.19c-0.17-2.72-0.25-4.07-0.43-6.79c5.62-2.01,8.43-2.98,14.05-4.74c-0.24,5.75-0.36,8.62-0.59,14.36
				c-6.1,2.72-11.67,4.9-17.54,6.58c-9.46,2.7-13.66-1.43-13.68-11.39c-0.02-10.69,2.78-14.12,18.3-18.63
				c4.24-1.23,8.94-2.08,14.01-2.18C181.61,119.53,181.27,121.6,180.61,125.73z"/>
			<path class="st2" d="M197.4,140.01c-12.97,1.88-14.77-0.14-14.55-11.11c0.28-13.28,3.19-16.69,19.53-18.82
				c11.05-1.44,14.88,2.01,14.33,14.78C216.21,136.63,213,137.75,197.4,140.01z M200.15,119.36c-1.08,0.15-1.3,0.9-1.46,6.17
				c-0.14,4.32,0.06,5.44,0.94,5.32s1.28-0.72,1.51-7.67C201.25,119.88,201.08,119.23,200.15,119.36z"/>
		</g>
	</g>
	<path class="st0" d="M56.38,97.56c-0.44,13.83-0.88,27.65-1.32,41.47C40.9,131,27.95,122.29,15.15,112.22l-8.04-7.2h0.93l7.03,5.36
		c-0.71-14.86-1.41-29.71-2.1-44.57C18.06,61.4,23.46,57.13,29,53.17L30.37,39l7.1,8.4l0.2,0.24c0.55,16.66,1.08,33.3,1.63,49.95
		c3.8,0.11,6.54,0.15,9.49,0.12l0.49-8.13L56.38,97.56z"/>
	<path class="st1" d="M47.57,131.54C33.4,123.5,20.45,114.8,7.64,104.73C6.91,89.26,6.18,73.79,5.45,58.32
		c7.71-6.68,16.13-13.01,24.7-18.54c0.55,16.77,1.1,33.55,1.64,50.32c6.68,0.18,10.11,0.16,17.08-0.04
		C48.45,103.89,48.01,117.71,47.57,131.54z"/>
	<polygon class="st0" points="165.07,67.68 164.29,70.14 164.68,83.78 167,83.25 167.01,67.02 	"/>
	<polygon class="st0" points="165.65,18.24 167.01,20.41 166.99,24.01 165.07,22.92 	"/>
	<polygon class="st0" points="226.61,34.66 231.93,42.01 227.86,42.66 	"/>
	<polygon class="st0" points="227.42,120.49 234.9,127.99 238.98,111.76 	"/>
</g>
</svg>
